# xmcd CD database file
#
# Track frame offsets:
#	175
#	2850
#	27712
#	53625
#	65287
#	87712
#	112162
#	134962
#	156037
#	178837
#
# Disc length: 2832 seconds
#
# Revision: 0
# Processed by: cddbd v1.5.2PL0 Copyright (c) Steve Scherf et al.
# Submitted via: CDex 1.51
#
DISCID=940b0e0a
DTITLE=Mickey's Monkey Party - We Need People
DYEAR=1999
DGENRE=Blues
TTITLE0=Monkey Blue
TTITLE1=Good Luck
TTITLE2=Colours
TTITLE3=Hey Good Lookin'
TTITLE4=Closer To You
TTITLE5=Looking For Somebody
TTITLE6=We Need People
TTITLE7=It Don't Work
TTITLE8=Lonely Town
TTITLE9=Wake Up
EXTD=YEAR: 1999
EXTT0=
EXTT1=
EXTT2=
EXTT3=
EXTT4=
EXTT5=
EXTT6=
EXTT7=
EXTT8=
EXTT9=
PLAYORDER=
